<svg width="49" height="49" viewBox="0 0 49 49" fill="none" xmlns="http://www.w3.org/2000/svg">
<g clip-path="url(#clip0_284_276)">
<path d="M48.2169 24.7035C48.2169 11.5472 37.5515 0.881852 24.3952 0.881852C11.2388 0.881852 0.573486 11.5472 0.573486 24.7035C0.573486 36.5936 9.28474 46.4487 20.673 48.2358V31.5895H14.6246V24.7035H20.673V19.4553C20.673 13.485 24.2294 10.1872 29.6708 10.1872C32.2771 10.1872 35.0033 10.6525 35.0033 10.6525V16.5148H31.9994C29.0402 16.5148 28.1173 18.3511 28.1173 20.235V24.7035H34.7241L33.668 31.5895H28.1173V48.2358C39.5056 46.4487 48.2169 36.5936 48.2169 24.7035Z" fill="#1877F2"/>
<path d="M33.6684 31.5892L34.7246 24.7032H28.1178V20.2346C28.1178 18.3508 29.0406 16.5145 31.9999 16.5145H35.0037V10.6521C35.0037 10.6521 32.2776 10.1869 29.6713 10.1869C24.2299 10.1869 20.6735 13.4847 20.6735 19.455V24.7032H14.625V31.5892H20.6735V48.2355C21.8863 48.4258 23.1293 48.5249 24.3956 48.5249C25.6619 48.5249 26.9049 48.4258 28.1178 48.2355V31.5892H33.6684Z" fill="white"/>
</g>
<defs>
<clipPath id="clip0_284_276">
<rect width="47.6434" height="47.6434" fill="white" transform="translate(0.57373 0.881836)"/>
</clipPath>
</defs>
</svg>
