<svg width="49" height="37" viewBox="0 0 49 37" fill="none" xmlns="http://www.w3.org/2000/svg">
<g clip-path="url(#clip0_284_285)">
<path d="M4.09379 36.57H11.6937V18.1933L0.83667 10.0259V33.3158C0.83667 35.1025 2.30557 36.57 4.09379 36.57Z" fill="#4285F4"/>
<path d="M37.687 36.57H45.287C47.0752 36.57 48.5441 35.1025 48.5441 33.3158V10.0259L37.687 18.1295" fill="#34A853"/>
<path d="M37.687 4.09189V18.1935L48.5441 10.0899V5.6871C48.5441 1.66719 43.9458 -0.629905 40.7525 1.7948" fill="#FBBC04"/>
<path d="M11.6936 18.1934V4.0918L24.7221 13.8544L37.6867 4.0918V18.1934L24.6582 27.8922" fill="#EA4335"/>
<path d="M0.83667 5.68609V10.025L11.6937 18.1287V4.09088L8.62822 1.79379C5.43496 -0.567107 0.83667 1.72998 0.83667 5.68609Z" fill="#C5221F"/>
</g>
<defs>
<clipPath id="clip0_284_285">
<rect width="47.6434" height="35.7325" fill="white" transform="translate(0.83667 0.836914)"/>
</clipPath>
</defs>
</svg>
