<svg width="48" height="49" viewBox="0 0 48 49" fill="none" xmlns="http://www.w3.org/2000/svg">
<g clip-path="url(#clip0_284_281)">
<path d="M39.5541 11.9746C39.5541 10.3932 38.2723 9.11621 36.6968 9.11621C35.1212 9.11621 33.8384 10.3932 33.8384 11.9746C33.8384 13.5502 35.1212 14.8271 36.6968 14.8271C38.2723 14.8271 39.5541 13.5502 39.5541 11.9746Z" fill="url(#paint0_linear_284_281)"/>
<path d="M43.361 34.2866C43.2552 36.6066 42.8672 37.867 42.5451 38.7041C42.1123 39.8141 41.5962 40.6078 40.759 41.4402C39.9312 42.2727 39.1375 42.7877 38.0276 43.2157C37.1904 43.5426 35.9253 43.9318 33.6054 44.0423C31.0974 44.1529 30.3543 44.1764 23.9944 44.1764C17.6403 44.1764 16.8912 44.1529 14.3832 44.0423C12.0634 43.9318 10.8041 43.5426 9.96686 43.2157C8.85105 42.7877 8.06329 42.2727 7.23082 41.4402C6.39244 40.6078 5.87629 39.8141 5.44947 38.7041C5.12723 37.867 4.7334 36.6066 4.63339 34.2866C4.51117 31.7786 4.48877 31.0237 4.48877 24.6767C4.48877 18.3168 4.51117 17.5678 4.63339 15.0597C4.7334 12.7399 5.12723 11.4806 5.44947 10.6364C5.87629 9.52757 6.39244 8.73857 7.23082 7.9061C8.06329 7.07486 8.85105 6.55862 9.96686 6.12598C10.8041 5.79793 12.0634 5.41459 14.3832 5.30409C16.8912 5.1935 17.6403 5.16528 23.9944 5.16528C30.3543 5.16528 31.0974 5.1935 33.6054 5.30409C35.9253 5.41459 37.1904 5.79793 38.0276 6.12598C39.1375 6.55862 39.9312 7.07486 40.759 7.9061C41.5962 8.73857 42.1123 9.52757 42.5451 10.6364C42.8672 11.4806 43.2552 12.7399 43.361 15.0597C43.4775 17.5678 43.5057 18.3168 43.5057 24.6767C43.5057 31.0237 43.4775 31.7786 43.361 34.2866ZM47.6446 14.8646C47.5282 12.3295 47.1283 10.5975 46.5346 9.08902C45.9303 7.52399 45.1201 6.19767 43.7937 4.87136C42.4734 3.55096 41.147 2.7408 39.582 2.1294C38.0676 1.54147 36.3415 1.13696 33.8052 1.02646C31.269 0.904148 30.459 0.881836 23.9944 0.881836C17.5356 0.881836 16.7196 0.904148 14.1834 1.02646C11.653 1.13696 9.92805 1.54147 8.4066 2.1294C6.84748 2.7408 5.52116 3.55096 4.20075 4.87136C2.87444 6.19767 2.06428 7.52399 1.45403 9.08902C0.866098 10.5975 0.466352 12.3295 0.344039 14.8646C0.233542 17.4008 0.205322 18.2121 0.205322 24.6767C0.205322 31.1355 0.233542 31.9455 0.344039 34.4818C0.466352 37.0121 0.866098 38.7429 1.45403 40.2586C2.06428 41.8177 2.87444 43.1499 4.20075 44.4703C5.52116 45.7908 6.84748 46.6068 8.4066 47.217C9.92805 47.8049 11.653 48.2047 14.1834 48.3211C16.7196 48.4375 17.5356 48.4657 23.9944 48.4657C30.459 48.4657 31.269 48.4375 33.8052 48.3211C36.3415 48.2047 38.0676 47.8049 39.582 47.217C41.147 46.6068 42.4734 45.7908 43.7937 44.4703C45.1201 43.1499 45.9303 41.8177 46.5346 40.2586C47.1283 38.7429 47.5282 37.0121 47.6446 34.4818C47.761 31.9455 47.7892 31.1355 47.7892 24.6767C47.7892 18.2121 47.761 17.4008 47.6446 14.8646Z" fill="url(#paint1_linear_284_281)"/>
<path d="M23.9944 32.6008C19.6168 32.6008 16.0647 29.0545 16.0647 24.677C16.0647 20.2923 19.6168 16.7415 23.9944 16.7415C28.3732 16.7415 31.9299 20.2923 31.9299 24.677C31.9299 29.0545 28.3732 32.6008 23.9944 32.6008ZM23.9944 12.4521C17.2464 12.4521 11.7812 17.929 11.7812 24.677C11.7812 31.4191 17.2464 36.8902 23.9944 36.8902C30.7423 36.8902 36.2134 31.4191 36.2134 24.677C36.2134 17.929 30.7423 12.4521 23.9944 12.4521Z" fill="url(#paint2_linear_284_281)"/>
</g>
<defs>
<linearGradient id="paint0_linear_284_281" x1="0.634712" y1="47.9739" x2="43.8262" y2="4.78259" gradientUnits="userSpaceOnUse">
<stop stop-color="#FFD521"/>
<stop offset="0.05" stop-color="#FFD521"/>
<stop offset="0.501119" stop-color="#F50000"/>
<stop offset="0.95" stop-color="#B900B4"/>
<stop offset="0.950079" stop-color="#B900B4"/>
<stop offset="1" stop-color="#B900B4"/>
</linearGradient>
<linearGradient id="paint1_linear_284_281" x1="0.634522" y1="48.033" x2="43.8615" y2="4.80611" gradientUnits="userSpaceOnUse">
<stop stop-color="#FFD521"/>
<stop offset="0.05" stop-color="#FFD521"/>
<stop offset="0.501119" stop-color="#F50000"/>
<stop offset="0.95" stop-color="#B900B4"/>
<stop offset="0.950079" stop-color="#B900B4"/>
<stop offset="1" stop-color="#B900B4"/>
</linearGradient>
<linearGradient id="paint2_linear_284_281" x1="0.645783" y1="48.0344" x2="43.8623" y2="4.81795" gradientUnits="userSpaceOnUse">
<stop stop-color="#FFD521"/>
<stop offset="0.05" stop-color="#FFD521"/>
<stop offset="0.501119" stop-color="#F50000"/>
<stop offset="0.95" stop-color="#B900B4"/>
<stop offset="0.950079" stop-color="#B900B4"/>
<stop offset="1" stop-color="#B900B4"/>
</linearGradient>
<clipPath id="clip0_284_281">
<rect width="47.6434" height="47.6434" fill="white" transform="translate(0.205078 0.881836)"/>
</clipPath>
</defs>
</svg>
